/* XPM */
static char * pynagram_xpm[] = {
"32 32 234 2",
"  	c None",
". 	c #BECB69",
"+ 	c #BAC765",
"@ 	c #BBC766",
"# 	c #B1BE5D",
"$ 	c #B3C05F",
"% 	c #BDC967",
"& 	c #BFCC6A",
"* 	c #B6C361",
"= 	c #AEBA5A",
"- 	c #B7C462",
"; 	c #BDCA68",
"> 	c #B0BD5D",
", 	c #A9B656",
"' 	c #A6B253",
") 	c #A5B253",
"! 	c #ADB959",
"~ 	c #ACB859",
"{ 	c #B0BC5C",
"] 	c #BCC967",
"^ 	c #B2BE5D",
"/ 	c #AAB757",
"( 	c #A9B556",
"_ 	c #AAB656",
": 	c #B2BF5F",
"< 	c #BECB6A",
"[ 	c #B8C563",
"} 	c #B0BD5C",
"| 	c #B6C362",
"1 	c #BBC866",
"2 	c #B2BF5E",
"3 	c #B7C463",
"4 	c #BCC968",
"5 	c #BAC867",
"6 	c #BAC766",
"7 	c #BFCC69",
"8 	c #B9C564",
"9 	c #C0CD6B",
"0 	c #AEBA5B",
"a 	c #A8B455",
"b 	c #ABB958",
"c 	c #B5C261",
"d 	c #ACB858",
"e 	c #C3D06E",
"f 	c #B3BF5F",
"g 	c #A9B555",
"h 	c #A8B555",
"i 	c #D3E080",
"j 	c #D0DD7C",
"k 	c #D4E181",
"l 	c #CDDA79",
"m 	c #C9D574",
"n 	c #C1CE6C",
"o 	c #A5B152",
"p 	c #AEBC5B",
"q 	c #CAD775",
"r 	c #DDE892",
"s 	c #D5E08A",
"t 	c #E5F193",
"u 	c #E9F598",
"v 	c #DBE889",
"w 	c #D5E282",
"x 	c #C4D170",
"y 	c #AAB657",
"z 	c #A2AF4F",
"A 	c #B2BE5E",
"B 	c #C2CF6D",
"C 	c #E2ECA1",
"D 	c #F2F6D7",
"E 	c #E9F2AB",
"F 	c #E4F191",
"G 	c #D7E383",
"H 	c #A1AD4E",
"I 	c #9FAC4D",
"J 	c #A5B051",
"K 	c #A3AF50",
"L 	c #ABB858",
"M 	c #C9D57F",
"N 	c #F0F6CD",
"O 	c #F3F7D7",
"P 	c #DFE99E",
"Q 	c #BAC669",
"R 	c #A9B55F",
"S 	c #B6C265",
"T 	c #ADBA5A",
"U 	c #9FAB4D",
"V 	c #A3B051",
"W 	c #A4B052",
"X 	c #C3D06D",
"Y 	c #E8F2A6",
"Z 	c #E9F1AC",
"` 	c #CDDA7A",
" .	c #A6B15E",
"..	c #909950",
"+.	c #949E53",
"@.	c #A6B15C",
"#.	c #A0AC4D",
"$.	c #A3AF51",
"%.	c #A4B050",
"&.	c #A7B455",
"*.	c #D7E484",
"=.	c #D8E585",
"-.	c #C0CC6C",
";.	c #929C51",
">.	c #848C4A",
",.	c #7F8747",
"'.	c #818948",
").	c #9DA857",
"!.	c #B9C666",
"~.	c #B3C05E",
"{.	c #A6B353",
"].	c #C9D675",
"^.	c #D4E080",
"/.	c #B9C667",
"(.	c #8B944D",
"_.	c #7A8245",
":.	c #757D43",
"<.	c #9DA858",
"[.	c #A0AB59",
"}.	c #B8C466",
"|.	c #BBC868",
"1.	c #9DA756",
"2.	c #9DA853",
"3.	c #AAB758",
"4.	c #A5B153",
"5.	c #9CA757",
"6.	c #838C49",
"7.	c #777F43",
"8.	c #8C954E",
"9.	c #C2CF6B",
"0.	c #B9C567",
"a.	c #BAC667",
"b.	c #BFCD6A",
"c.	c #9BA657",
"d.	c #A7B454",
"e.	c #9CA84A",
"f.	c #B6C261",
"g.	c #A1AC5A",
"h.	c #8F9850",
"i.	c #C1CE6B",
"j.	c #ABB75F",
"k.	c #868E4B",
"l.	c #7E8647",
"m.	c #939E52",
"n.	c #9BA749",
"o.	c #A0AD4E",
"p.	c #B9C665",
"q.	c #B5C265",
"r.	c #BBC867",
"s.	c #8C944E",
"t.	c #7E8747",
"u.	c #8A934E",
"v.	c #9EAA4C",
"w.	c #C0CD6A",
"x.	c #9BA556",
"y.	c #788043",
"z.	c #767E43",
"A.	c #B1BE5E",
"B.	c #BECC69",
"C.	c #848D4A",
"D.	c #777E43",
"E.	c #828B49",
"F.	c #AAB55E",
"G.	c #848E4A",
"H.	c #ABB757",
"I.	c #CFDC7C",
"J.	c #99A355",
"K.	c #8F9950",
"L.	c #A4B152",
"M.	c #E0EC8D",
"N.	c #C7D473",
"O.	c #B3BF63",
"P.	c #87904C",
"Q.	c #868F4B",
"R.	c #AFBC5B",
"S.	c #B9C664",
"T.	c #BFCD6B",
"U.	c #CCD77C",
"V.	c #D3DD8D",
"W.	c #D1DA94",
"X.	c #E7EFB1",
"Y.	c #E6F196",
"Z.	c #C4D270",
"`.	c #939D52",
" +	c #858E4B",
".+	c #B4C160",
"++	c #B8C564",
"@+	c #C0CE6C",
"#+	c #CFDC7B",
"$+	c #DBE887",
"%+	c #F2F7D0",
"&+	c #FBFDF6",
"*+	c #FBFCF4",
"=+	c #F6F9E1",
"-+	c #D2DD86",
";+	c #ADB960",
">+	c #A9B55E",
",+	c #B4C05F",
"'+	c #CBD877",
")+	c #DCE889",
"!+	c #E1ED8F",
"~+	c #E7F0AB",
"{+	c #F1F7CC",
"]+	c #E1E9A7",
"^+	c #CFD989",
"/+	c #CAD580",
"(+	c #BECB68",
"_+	c #8B944E",
":+	c #A7B354",
"<+	c #B5C161",
"[+	c #D1DE7E",
"}+	c #EBF799",
"|+	c #E3F091",
"1+	c #D9E48F",
"2+	c #C4CE7E",
"3+	c #AFBA61",
"4+	c #ABB760",
"5+	c #ABB65F",
"6+	c #B5C264",
"7+	c #AFBB61",
"8+	c #B8C565",
"9+	c #C8D574",
"0+	c #BCC869",
"a+	c #96A153",
"b+	c #8E974F",
"c+	c #8A944E",
"d+	c #9FA958",
"e+	c #B9C566",
"f+	c #A8B454",
"g+	c #B5C164",
"h+	c #88914C",
"i+	c #828A49",
"j+	c #798144",
"k+	c #788044",
"                                                                ",
"                                                                ",
"                                                                ",
"                        . + @ # $ % & . * = -                   ",
"                    & ; > , ' ) ! + & ; > ~ { ; &               ",
"                  . & ] ^ / ( _ : < . . [ } | . & &             ",
"                1 2 3 4 5 6 1 ] & . & . & & 7 & 8 ^ 8           ",
"              9 ! / } 4 & & . < & & & & & & & 4 0 a b ]         ",
"            c d ' a | & & & e . . . . . & & & . f , # .         ",
"          g a h g > & & < i j e k l m n . & & . & . & &         ",
"        a o h p | . . . q r s t u v w x . & & & & & . ; y       ",
"        z ' A & & . & B C D E F G 9 . . & & & & & & & 2 H I     ",
"      J K L ; . & & . M N O P Q R S & & & & & & & & & T U H     ",
"      V W 3 & & & . X Y Z `  ...+.@.. & & & & & & & & = #.$.    ",
"    2 %.&.; & & & 9 *.=.-.;.>.,.'.).!.& & & & & & & & ~.{.      ",
"    > K _ & . & . ].^./.(._.:.;.<.[.}.& & & & & & < |.1.2.      ",
"    3.#.4.+ & & . 9 < 5.6.7.8.9.0.a.& & & & & & . b.c.>.8.      ",
"    d.e.V f.& & & & |.g.h.g.i.. & & & & & & & & & j.k.l.m.      ",
"    {.n.o.p.. & & & & }.q.& < & & & & & & & & . r.s.t.u.        ",
"    / v.$.; & & & & & & & & & & & & & & & & & w.x.y.z.          ",
"    A.K ( B.& & & & & & & & & & & & & & & . . 4 C.D.E.          ",
"    2 ' L . & & & & & & & & & & & & & & 9 B & F.G.'.            ",
"    | H.A . & & & & & & & & & & & & & . k I.w.J.C.K.            ",
"    h L.2 & & & & & & & & & & & . . . e M.N.O.P.Q.x.            ",
"      o R.. S.] & & & & & & . T.U.V.W.X.Y.Z.`. +8.              ",
"        ] .+y a ++& & . & @+#+$+%+&+*+=+-+;+Q. +>+              ",
"          ,+o K , S.. n '+)+!+~+{+]+^+/+(+)._+h.                ",
"            .+:+' d.L <+[+}+|+1+2+3+4+5+6+>+x.7+                ",
"                d.' ' L 8+9+0+a+b+c+P.8.d+e+                    ",
"                    f+d 3 g+`.h+i+P.C.Q.                        ",
"                            j+k+                                ",
"                                                                "};
